<?xml version="1.0" encoding="UTF-8" standalone="no"?>
<!-- Created with Inkscape (http://www.inkscape.org/) -->

<svg
   xmlns:dc="http://purl.org/dc/elements/1.1/"
   xmlns:cc="http://creativecommons.org/ns#"
   xmlns:rdf="http://www.w3.org/1999/02/22-rdf-syntax-ns#"
   xmlns:svg="http://www.w3.org/2000/svg"
   xmlns="http://www.w3.org/2000/svg"
   xmlns:sodipodi="http://sodipodi.sourceforge.net/DTD/sodipodi-0.dtd"
   xmlns:inkscape="http://www.inkscape.org/namespaces/inkscape"
   width="744.09448819"
   height="1052.3622047"
   id="svg2"
   version="1.1"
   inkscape:version="0.48.4 r9939"
   sodipodi:docname="circle.svg">
  <defs
     id="defs4" />
  <sodipodi:namedview
     id="base"
     pagecolor="#ffffff"
     bordercolor="#666666"
     borderopacity="1.0"
     inkscape:pageopacity="0.0"
     inkscape:pageshadow="2"
     inkscape:zoom="7.0291605"
     inkscape:cx="150.7574"
     inkscape:cy="415.48133"
     inkscape:document-units="px"
     inkscape:current-layer="layer1"
     showgrid="true"
     inkscape:window-width="1317"
     inkscape:window-height="744"
     inkscape:window-x="49"
     inkscape:window-y="24"
     inkscape:window-maximized="1">
    <inkscape:grid
       type="xygrid"
       id="grid3765" />
  </sodipodi:namedview>
  <metadata
     id="metadata7">
    <rdf:RDF>
      <cc:Work
         rdf:about="">
        <dc:format>image/svg+xml</dc:format>
        <dc:type
           rdf:resource="http://purl.org/dc/dcmitype/StillImage" />
        <dc:title></dc:title>
      </cc:Work>
    </rdf:RDF>
  </metadata>
  <g
     inkscape:label="Layer 1"
     inkscape:groupmode="layer"
     id="layer1">
    <path
       transform="matrix(0.38926236,0,0,0.40000065,364.98608,136.71065)"
       d="m 369,157.86218 a 74.5,72.5 0 1 1 -149,0 74.5,72.5 0 1 1 149,0 z"
       sodipodi:ry="72.5"
       sodipodi:rx="74.5"
       sodipodi:cy="157.86218"
       sodipodi:cx="294.5"
       id="path3777"
       style="fill:none;stroke:#000000;stroke-width:17.73970877;stroke-linecap:butt;stroke-linejoin:miter;stroke-miterlimit:4;stroke-opacity:1;stroke-dasharray:none"
       sodipodi:type="arc"
       inkscape:export-filename="/home/aaron/Projects/aaron/circolor/textures/circle004.png"
       inkscape:export-xdpi="90"
       inkscape:export-ydpi="90" />
    <path
       sodipodi:type="arc"
       style="fill:none;stroke:#000000;stroke-width:25.62402345;stroke-linecap:butt;stroke-linejoin:miter;stroke-miterlimit:4;stroke-opacity:1;stroke-dasharray:none"
       id="path3779"
       sodipodi:cx="294.5"
       sodipodi:cy="157.86218"
       sodipodi:rx="74.5"
       sodipodi:ry="72.5"
       d="m 369,157.86218 a 74.5,72.5 0 1 1 -149,0 74.5,72.5 0 1 1 149,0 z"
       transform="matrix(0.26948933,0,0,0.27692353,400.14593,156.01787)"
       inkscape:export-filename="/home/aaron/Projects/aaron/circolor/textures/circle004.png"
       inkscape:export-xdpi="90"
       inkscape:export-ydpi="90" />
    <path
       transform="matrix(0.15689807,0,0,0.16122625,433.25942,174.40137)"
       d="m 369,157.86218 a 74.5,72.5 0 1 1 -149,0 74.5,72.5 0 1 1 149,0 z"
       sodipodi:ry="72.5"
       sodipodi:rx="74.5"
       sodipodi:cy="157.86218"
       sodipodi:cx="294.5"
       id="path3781"
       style="fill:none;stroke:#000000;stroke-width:44.01202774;stroke-linecap:butt;stroke-linejoin:miter;stroke-miterlimit:4;stroke-opacity:1;stroke-dasharray:none"
       sodipodi:type="arc"
       inkscape:export-filename="/home/aaron/Projects/aaron/circolor/textures/circle004.png"
       inkscape:export-xdpi="90"
       inkscape:export-ydpi="90" />
    <path
       sodipodi:type="arc"
       style="fill:#000000;fill-opacity:1;fill-rule:evenodd;stroke:none"
       id="path3783"
       sodipodi:cx="480"
       sodipodi:cy="202.36218"
       sodipodi:rx="5"
       sodipodi:ry="5"
       d="m 485,202.36218 a 5,5 0 1 1 -10,0 5,5 0 1 1 10,0 z"
       transform="matrix(1.5,0,0,1.5,-240.577,-103.54029)"
       inkscape:export-filename="/home/aaron/Projects/aaron/circolor/textures/circle004.png"
       inkscape:export-xdpi="90"
       inkscape:export-ydpi="90" />
    <path
       sodipodi:type="arc"
       style="fill:none;stroke:#000000;stroke-width:17.73970795;stroke-linecap:butt;stroke-linejoin:miter;stroke-miterlimit:4;stroke-opacity:1;stroke-dasharray:none"
       id="path3785"
       sodipodi:cx="294.5"
       sodipodi:cy="157.86218"
       sodipodi:rx="74.5"
       sodipodi:ry="72.5"
       d="m 369,157.86218 a 74.5,72.5 0 1 1 -149,0 74.5,72.5 0 1 1 149,0 z"
       transform="matrix(0.38926236,0,0,0.40000065,284.98608,136.71065)"
       inkscape:export-filename="/home/aaron/Projects/aaron/circolor/textures/circle003.png"
       inkscape:export-xdpi="90"
       inkscape:export-ydpi="90" />
    <path
       transform="matrix(0.26948933,0,0,0.27692353,320.14593,156.01787)"
       d="m 369,157.86218 a 74.5,72.5 0 1 1 -149,0 74.5,72.5 0 1 1 149,0 z"
       sodipodi:ry="72.5"
       sodipodi:rx="74.5"
       sodipodi:cy="157.86218"
       sodipodi:cx="294.5"
       id="path3787"
       style="fill:none;stroke:#000000;stroke-width:25.62402344;stroke-linecap:butt;stroke-linejoin:miter;stroke-miterlimit:4;stroke-opacity:1;stroke-dasharray:none"
       sodipodi:type="arc"
       inkscape:export-filename="/home/aaron/Projects/aaron/circolor/textures/circle003.png"
       inkscape:export-xdpi="90"
       inkscape:export-ydpi="90" />
    <path
       sodipodi:type="arc"
       style="fill:none;stroke:#000000;stroke-width:44.01202774;stroke-linecap:butt;stroke-linejoin:miter;stroke-miterlimit:4;stroke-opacity:1;stroke-dasharray:none"
       id="path3789"
       sodipodi:cx="294.5"
       sodipodi:cy="157.86218"
       sodipodi:rx="74.5"
       sodipodi:ry="72.5"
       d="m 369,157.86218 a 74.5,72.5 0 1 1 -149,0 74.5,72.5 0 1 1 149,0 z"
       transform="matrix(0.15689807,0,0,0.16122625,353.25942,174.40137)"
       inkscape:export-filename="/home/aaron/Projects/aaron/circolor/textures/circle003.png"
       inkscape:export-xdpi="90"
       inkscape:export-ydpi="90" />
    <path
       transform="matrix(0.38926236,0,0,0.40000065,204.98608,136.71065)"
       d="m 369,157.86218 a 74.5,72.5 0 1 1 -149,0 74.5,72.5 0 1 1 149,0 z"
       sodipodi:ry="72.5"
       sodipodi:rx="74.5"
       sodipodi:cy="157.86218"
       sodipodi:cx="294.5"
       id="path3793"
       style="fill:none;stroke:#000000;stroke-width:17.73970795;stroke-linecap:butt;stroke-linejoin:miter;stroke-miterlimit:4;stroke-opacity:1;stroke-dasharray:none"
       sodipodi:type="arc"
       inkscape:export-filename="/home/aaron/Projects/aaron/circolor/textures/circle002.png"
       inkscape:export-xdpi="90"
       inkscape:export-ydpi="90" />
    <path
       sodipodi:type="arc"
       style="fill:none;stroke:#000000;stroke-width:25.62402344;stroke-linecap:butt;stroke-linejoin:miter;stroke-miterlimit:4;stroke-opacity:1;stroke-dasharray:none"
       id="path3795"
       sodipodi:cx="294.5"
       sodipodi:cy="157.86218"
       sodipodi:rx="74.5"
       sodipodi:ry="72.5"
       d="m 369,157.86218 a 74.5,72.5 0 1 1 -149,0 74.5,72.5 0 1 1 149,0 z"
       transform="matrix(0.26948933,0,0,0.27692353,240.14593,156.01787)"
       inkscape:export-filename="/home/aaron/Projects/aaron/circolor/textures/circle002.png"
       inkscape:export-xdpi="90"
       inkscape:export-ydpi="90" />
    <path
       sodipodi:type="arc"
       style="fill:none;stroke:#000000;stroke-width:17.73970795;stroke-linecap:butt;stroke-linejoin:miter;stroke-miterlimit:4;stroke-opacity:1;stroke-dasharray:none"
       id="path3799"
       sodipodi:cx="294.5"
       sodipodi:cy="157.86218"
       sodipodi:rx="74.5"
       sodipodi:ry="72.5"
       d="m 369,157.86218 a 74.5,72.5 0 1 1 -149,0 74.5,72.5 0 1 1 149,0 z"
       transform="matrix(0.38926236,0,0,0.40000065,124.98608,136.71065)"
       inkscape:export-filename="/home/aaron/Projects/aaron/circolor/textures/circle001.png"
       inkscape:export-xdpi="90"
       inkscape:export-ydpi="90" />
    <path
       sodipodi:type="arc"
       style="fill:#000000;stroke:#000000;stroke-width:17.73970794999999967;stroke-linecap:butt;stroke-linejoin:miter;stroke-miterlimit:4;stroke-opacity:1;stroke-dasharray:none;fill-opacity:1"
       id="path3803"
       sodipodi:cx="294.5"
       sodipodi:cy="157.86218"
       sodipodi:rx="74.5"
       sodipodi:ry="72.5"
       d="m 369,157.86218 a 74.5,72.5 0 1 1 -149,0 74.5,72.5 0 1 1 149,0 z"
       transform="matrix(0.38926236,0,0,0.40000065,444.98608,136.71065)"
       inkscape:export-filename="/home/aaron/Projects/aaron/circolor/textures/circle005.png"
       inkscape:export-xdpi="90"
       inkscape:export-ydpi="90" />
    <path
       inkscape:export-ydpi="90"
       inkscape:export-xdpi="90"
       inkscape:export-filename="/home/aaron/Projects/aaron/circolor/textures/blob001.png"
       transform="matrix(0.08982965,0,0,0.09230775,587.16904,194.28385)"
       d="m 369,157.86218 a 74.5,72.5 0 1 1 -149,0 74.5,72.5 0 1 1 149,0 z"
       sodipodi:ry="72.5"
       sodipodi:rx="74.5"
       sodipodi:cy="157.86218"
       sodipodi:cx="294.5"
       id="path3805"
       style="fill:#000000;fill-opacity:1;stroke:#000000;stroke-width:17.73970795;stroke-linecap:butt;stroke-linejoin:miter;stroke-miterlimit:4;stroke-opacity:1;stroke-dasharray:none"
       sodipodi:type="arc" />
    <path
       inkscape:export-ydpi="90"
       inkscape:export-xdpi="90"
       inkscape:export-filename="/home/aaron/Projects/aaron/circolor/textures/circle007.png"
       transform="matrix(0.38926236,0,0,0.40000065,284.98608,212.71065)"
       d="m 369,157.86218 a 74.5,72.5 0 1 1 -149,0 74.5,72.5 0 1 1 149,0 z"
       sodipodi:ry="72.5"
       sodipodi:rx="74.5"
       sodipodi:cy="157.86218"
       sodipodi:cx="294.5"
       id="path3011"
       style="fill:none;stroke:#000000;stroke-width:17.73970795;stroke-linecap:butt;stroke-linejoin:miter;stroke-miterlimit:4;stroke-opacity:1;stroke-dasharray:none"
       sodipodi:type="arc" />
    <path
       inkscape:export-ydpi="90"
       inkscape:export-xdpi="90"
       inkscape:export-filename="/home/aaron/Projects/aaron/circolor/textures/circle007.png"
       transform="matrix(0.21641976,0,0,0.2223899,335.83443,239.87618)"
       d="m 369,157.86218 a 74.5,72.5 0 1 1 -149,0 74.5,72.5 0 1 1 149,0 z"
       sodipodi:ry="72.5"
       sodipodi:rx="74.5"
       sodipodi:cy="157.86218"
       sodipodi:cx="294.5"
       id="path3015"
       style="fill:none;stroke:#000000;stroke-width:44.01202774;stroke-linecap:butt;stroke-linejoin:miter;stroke-miterlimit:4;stroke-opacity:1;stroke-dasharray:none"
       sodipodi:type="arc" />
    <path
       inkscape:export-ydpi="90"
       inkscape:export-xdpi="90"
       inkscape:export-filename="/home/aaron/Projects/aaron/circolor/textures/circle006.png"
       sodipodi:type="arc"
       style="fill:none;stroke:#000000;stroke-width:17.73970795;stroke-linecap:butt;stroke-linejoin:miter;stroke-miterlimit:4;stroke-opacity:1;stroke-dasharray:none"
       id="path3017"
       sodipodi:cx="294.5"
       sodipodi:cy="157.86218"
       sodipodi:rx="74.5"
       sodipodi:ry="72.5"
       d="m 369,157.86218 a 74.5,72.5 0 1 1 -149,0 74.5,72.5 0 1 1 149,0 z"
       transform="matrix(0.38926236,0,0,0.40000065,204.98608,212.71065)" />
    <path
       inkscape:export-ydpi="90"
       inkscape:export-xdpi="90"
       inkscape:export-filename="/home/aaron/Projects/aaron/circolor/textures/circle006.png"
       transform="matrix(0.2980654,0,0,0.30628716,232.23031,227.18208)"
       d="m 369,157.86218 a 74.5,72.5 0 1 1 -149,0 74.5,72.5 0 1 1 149,0 z"
       sodipodi:ry="72.5"
       sodipodi:rx="74.5"
       sodipodi:cy="157.86218"
       sodipodi:cx="294.5"
       id="path3019"
       style="fill:none;stroke:#000000;stroke-width:25.62402344;stroke-linecap:butt;stroke-linejoin:miter;stroke-miterlimit:4;stroke-opacity:1;stroke-dasharray:none"
       sodipodi:type="arc" />
    <path
       inkscape:export-ydpi="90"
       inkscape:export-xdpi="90"
       inkscape:export-filename="/home/aaron/Projects/aaron/circolor/textures/circle001.png"
       transform="matrix(0.38926236,0,0,0.40000065,124.98608,212.71065)"
       d="m 369,157.86218 a 74.5,72.5 0 1 1 -149,0 74.5,72.5 0 1 1 149,0 z"
       sodipodi:ry="72.5"
       sodipodi:rx="74.5"
       sodipodi:cy="157.86218"
       sodipodi:cx="294.5"
       id="path3021"
       style="fill:none;stroke:#000000;stroke-width:17.73970795;stroke-linecap:butt;stroke-linejoin:miter;stroke-miterlimit:4;stroke-opacity:1;stroke-dasharray:none"
       sodipodi:type="arc" />
    <path
       inkscape:export-ydpi="90"
       inkscape:export-xdpi="90"
       inkscape:export-filename="/home/aaron/Projects/aaron/circolor/textures/circle005.png"
       transform="matrix(0.38926236,0,0,0.40000065,377.8504,214.05068)"
       d="m 369,157.86218 a 74.5,72.5 0 1 1 -149,0 74.5,72.5 0 1 1 149,0 z"
       sodipodi:ry="72.5"
       sodipodi:rx="74.5"
       sodipodi:cy="157.86218"
       sodipodi:cx="294.5"
       id="path3023"
       style="fill:#000000;fill-opacity:1;stroke:#000000;stroke-width:17.73970795;stroke-linecap:butt;stroke-linejoin:miter;stroke-miterlimit:4;stroke-opacity:1;stroke-dasharray:none"
       sodipodi:type="arc" />
    <path
       sodipodi:type="arc"
       style="fill:#000000;fill-opacity:1;stroke:#000000;stroke-width:17.73970795;stroke-linecap:butt;stroke-linejoin:miter;stroke-miterlimit:4;stroke-opacity:1;stroke-dasharray:none"
       id="path3025"
       sodipodi:cx="294.5"
       sodipodi:cy="157.86218"
       sodipodi:rx="74.5"
       sodipodi:ry="72.5"
       d="m 369,157.86218 a 74.5,72.5 0 1 1 -149,0 74.5,72.5 0 1 1 149,0 z"
       transform="matrix(0.14971608,0,0,0.15384622,574.53236,255.56912)"
       inkscape:export-filename="/home/aaron/Projects/aaron/circolor/textures/blob002.png"
       inkscape:export-xdpi="90"
       inkscape:export-ydpi="90" />
    <path
       sodipodi:type="arc"
       style="fill:none;stroke:#000000;stroke-width:25.62402344;stroke-linecap:butt;stroke-linejoin:miter;stroke-miterlimit:4;stroke-opacity:1;stroke-dasharray:none"
       id="path3027"
       sodipodi:cx="294.5"
       sodipodi:cy="157.86218"
       sodipodi:rx="74.5"
       sodipodi:ry="72.5"
       d="m 369,157.86218 a 74.5,72.5 0 1 1 -149,0 74.5,72.5 0 1 1 149,0 z"
       transform="matrix(0.2980654,0,0,0.30628716,311.56029,227.18208)"
       inkscape:export-filename="/home/aaron/Projects/aaron/circolor/textures/circle007.png"
       inkscape:export-xdpi="90"
       inkscape:export-ydpi="90" />
    <rect
       style="fill:#efefef;fill-opacity:1;stroke:#000000;stroke-opacity:1"
       id="rect3011"
       width="240"
       height="120"
       x="230"
       y="372.36218"
       rx="4"
       ry="4"
       inkscape:export-filename="/home/aaron/Projects/aaron/circolor/textures/playButton.png"
       inkscape:export-xdpi="90"
       inkscape:export-ydpi="90" />
    <path
       inkscape:export-ydpi="90"
       inkscape:export-xdpi="90"
       inkscape:export-filename="/home/aaron/Projects/aaron/circolor/textures/playButton.png"
       transform="matrix(0.14971608,0,0,0.15384622,377.84861,405.99162)"
       d="m 369,157.86218 a 74.5,72.5 0 1 1 -149,0 74.5,72.5 0 1 1 149,0 z"
       sodipodi:ry="72.5"
       sodipodi:rx="74.5"
       sodipodi:cy="157.86218"
       sodipodi:cx="294.5"
       id="path3782"
       style="fill:#000000;fill-opacity:1;stroke:#000000;stroke-width:17.73970795;stroke-linecap:butt;stroke-linejoin:miter;stroke-miterlimit:4;stroke-opacity:1;stroke-dasharray:none"
       sodipodi:type="arc" />
    <text
       xml:space="preserve"
       style="font-size:57.20670319px;font-style:normal;font-weight:normal;line-height:125%;letter-spacing:0px;word-spacing:0px;fill:#000000;fill-opacity:1;stroke:none;font-family:Sans"
       x="279.07581"
       y="444.61502"
       id="text3784"
       sodipodi:linespacing="125%"
       inkscape:export-filename="/home/aaron/Projects/aaron/circolor/textures/playButton.png"
       inkscape:export-xdpi="90"
       inkscape:export-ydpi="90"><tspan
         sodipodi:role="line"
         id="tspan3786"
         x="279.07581"
         y="444.61502"
         style="font-style:normal;font-variant:normal;font-weight:normal;font-stretch:normal;font-family:Khmer OS;-inkscape-font-specification:Khmer OS">play</tspan></text>
    <rect
       style="fill:#494949;fill-opacity:1;stroke:#9e9e9e;stroke-opacity:1"
       id="rect3020"
       width="46.528065"
       height="46.528065"
       x="98.23597"
       y="607.59814"
       inkscape:export-filename="/home/aaron/Projects/aaron/circolor/textures/arrowButton.png"
       inkscape:export-xdpi="90"
       inkscape:export-ydpi="90" />
    <path
       style="fill:none;stroke:#999999;stroke-width:1px;stroke-linecap:butt;stroke-linejoin:miter;stroke-opacity:1"
       d="m 120,622.36218 20,0 0,15 -20,0 0,10 L 101.87018,629.94369 120,612.36218 z"
       id="path3790"
       inkscape:connector-curvature="0"
       sodipodi:nodetypes="cccccccc"
       inkscape:export-filename="/home/aaron/Projects/aaron/circolor/textures/arrowButton.png"
       inkscape:export-xdpi="90"
       inkscape:export-ydpi="90" />
    <rect
       style="fill:#494949;fill-opacity:1;stroke:#999999;stroke-width:1;stroke-linecap:round;stroke-miterlimit:4;stroke-opacity:1;stroke-dasharray:none;stroke-dashoffset:0"
       id="rect3794"
       width="75"
       height="50"
       x="160.42679"
       y="608.07349"
       inkscape:export-filename="/home/aaron/Projects/aaron/circolor/textures/shootButton.png"
       inkscape:export-xdpi="90"
       inkscape:export-ydpi="90" />
    <text
       xml:space="preserve"
       style="font-size:24px;font-style:normal;font-weight:normal;line-height:119.00000572000000432%;letter-spacing:0px;word-spacing:0px;fill:#a8a8a8;fill-opacity:1;stroke:none;font-family:Sans"
       x="163.02682"
       y="638.94153"
       id="text3796"
       sodipodi:linespacing="119.00001%"
       inkscape:export-filename="/home/aaron/Projects/aaron/circolor/textures/shootButton.png"
       inkscape:export-xdpi="90"
       inkscape:export-ydpi="90"><tspan
         sodipodi:role="line"
         id="tspan3798"
         x="163.02682"
         y="638.94153">Shoot</tspan></text>
  </g>
</svg>
